<svg id="Слой_2" data-name="Слой 2" xmlns="http://www.w3.org/2000/svg" viewBox="0 0 1233 567"><title>arrow_long-02-02-02</title><path d="M880.18,460.14c-.77-1.22-1.54-2.42-2.39-3.54a32.14,32.14,0,0,0-2.76-3.17,36.15,36.15,0,0,0-6.54-5.19c-2.36-1.51-4.9-2.79-7.45-4.11-1.28-.66-2.56-1.33-3.82-2.07a16.17,16.17,0,0,1-3.52-2.65l-.32-.34h.42c5.52-1.58,11-3.07,16.18-5.05a53.63,53.63,0,0,0,7.55-3.55,25.26,25.26,0,0,0,6.48-5.24l.32.2a18,18,0,0,1-5.78,6.58,34.49,34.49,0,0,1-7.71,4.18,46.57,46.57,0,0,1-8.36,2.47,38.51,38.51,0,0,1-8.64.79h0l.11-.33a24,24,0,0,0,3.79,1.9l4,1.61a50.64,50.64,0,0,1,7.85,3.88,27.47,27.47,0,0,1,6.74,5.75,22,22,0,0,1,4.21,7.73Z"/><path d="M863.94,439.62c29.92-5.08,60.18-8,90.46-10,15.15-1,30.31-1.65,45.45-2.3s30.28-1.32,45.3-2.65,30-3.39,44-8.32a80.31,80.31,0,0,0,19.72-9.9,69.71,69.71,0,0,0,15.73-15.32c8.85-11.84,14.42-26,18.36-40.42a312.82,312.82,0,0,0,8.23-44.4c1.79-15,2.91-30.09,3.67-45.2.2-3.78.36-7.56.51-11.35s.33-7.55.28-11.32c0-7.55-.18-15.11-.63-22.65a285.25,285.25,0,0,0-5.93-44.85,179.94,179.94,0,0,0-14.75-42.62,118.32,118.32,0,0,0-27.12-35.72,106.58,106.58,0,0,0-39.16-21.77A140.86,140.86,0,0,0,1023.41,65a178,178,0,0,0-22.57,2,154.05,154.05,0,0,0-22.1,4.92l-.25-.74A156.76,156.76,0,0,1,1000.7,66a175.81,175.81,0,0,1,22.69-2.16,140.42,140.42,0,0,1,45.14,5.6,107.86,107.86,0,0,1,39.86,21.88,119.94,119.94,0,0,1,27.76,36.12,182.33,182.33,0,0,1,15.16,43,289.32,289.32,0,0,1,6.24,45.19c.48,7.59.71,15.19.76,22.8,0,3.81-.08,7.62-.16,11.41s-.21,7.59-.36,11.38c-.56,15.17-1.48,30.35-3.08,45.48-.81,7.56-1.8,15.12-3,22.64s-2.77,15-4.73,22.41a157.69,157.69,0,0,1-7.36,21.82,95.88,95.88,0,0,1-11.43,20.18,74,74,0,0,1-16.7,16.3,83.82,83.82,0,0,1-20.79,10.46,140.1,140.1,0,0,1-22.4,5.53c-7.56,1.26-15.16,2.1-22.75,2.72-15.19,1.22-30.37,1.6-45.52,2.06s-30.3.82-45.43,1.51-30.24,1.65-45.33,3-30.13,3.08-45.16,5Z"/></svg>