<svg id="Слой_2" data-name="Слой 2" xmlns="http://www.w3.org/2000/svg" viewBox="0 0 1233 567"><title>arrow_long-03</title><path d="M939.18,296.14c-.77-1.22-1.54-2.42-2.39-3.54a32.14,32.14,0,0,0-2.76-3.17,36.15,36.15,0,0,0-6.54-5.19c-2.36-1.51-4.9-2.79-7.45-4.11-1.28-.66-2.56-1.33-3.82-2.07a16.17,16.17,0,0,1-3.52-2.65l-.32-.34h.42c5.52-1.58,11-3.07,16.18-5.05a53.63,53.63,0,0,0,7.55-3.55,25.26,25.26,0,0,0,6.48-5.24l.32.2a18,18,0,0,1-5.78,6.58,34.49,34.49,0,0,1-7.71,4.18,46.57,46.57,0,0,1-8.36,2.47,38.51,38.51,0,0,1-8.64.79h0l.11-.33a24,24,0,0,0,3.79,1.9l4,1.61a50.64,50.64,0,0,1,7.85,3.88,27.47,27.47,0,0,1,6.74,5.75,22,22,0,0,1,4.21,7.73Z"/><path d="M921.93,276.62c22.6-4.5,45.71-6,68.72-6.39,11.51-.19,23-.1,34.5,0s23,.13,34.35-.4,22.75-1.72,33.56-4.8a74.54,74.54,0,0,0,15.51-6.2,60.48,60.48,0,0,0,13.35-9.83,69.31,69.31,0,0,0,10.37-13,92.85,92.85,0,0,0,7.46-15.09,166.85,166.85,0,0,0,8.69-32.89,320.82,320.82,0,0,0,3.67-34.09c.17-2.86.3-5.72.42-8.58l.15-4.28c0-1.42,0-2.84,0-4.26a149.09,149.09,0,0,0-1.29-17,102.26,102.26,0,0,0-9.74-32.5,77.33,77.33,0,0,0-21.35-26.13A93.41,93.41,0,0,0,1090,45.71a145.1,145.1,0,0,0-33.7-5.83,218.54,218.54,0,0,0-34.32.75,235.4,235.4,0,0,0-33.89,5.74l-.2-.74a235.79,235.79,0,0,1,34-6.14,214,214,0,0,1,34.52-1.08,146.34,146.34,0,0,1,34.12,5.65,95,95,0,0,1,31,15.5,79.32,79.32,0,0,1,22.12,26.66,104.74,104.74,0,0,1,10.21,33.17,150,150,0,0,1,1.44,17.31c.06,1.45,0,2.91.08,4.36l-.08,4.33c-.07,2.88-.15,5.76-.27,8.64a322.44,322.44,0,0,1-3.1,34.5,165.59,165.59,0,0,1-8.34,33.79,97.86,97.86,0,0,1-7.61,15.86A69.7,69.7,0,0,1,1125,252.13a64.3,64.3,0,0,1-14.3,10.56,78.33,78.33,0,0,1-16.42,6.6c-11.36,3.12-23,4.21-34.58,4.66s-23.1.1-34.59-.19-23-.72-34.43-.8-22.94.12-34.38.83-22.85,1.93-34.21,3.59Z"/></svg>