<svg id="Слой_2" data-name="Слой 2" xmlns="http://www.w3.org/2000/svg" viewBox="0 0 1233 567"><title>arrow_long-02-02</title><path d="M688.18,459.14c-.77-1.22-1.54-2.42-2.39-3.54a32.14,32.14,0,0,0-2.76-3.17,36.15,36.15,0,0,0-6.54-5.19c-2.36-1.51-4.9-2.79-7.45-4.11-1.28-.66-2.56-1.33-3.82-2.07a16.17,16.17,0,0,1-3.52-2.65l-.32-.34h.42c5.52-1.58,11-3.07,16.18-5.05a53.63,53.63,0,0,0,7.55-3.55,25.26,25.26,0,0,0,6.48-5.24l.32.2a18,18,0,0,1-5.78,6.58,34.49,34.49,0,0,1-7.71,4.18,46.57,46.57,0,0,1-8.36,2.47,38.51,38.51,0,0,1-8.64.79h0l.11-.33a24,24,0,0,0,3.79,1.9l4,1.61a50.64,50.64,0,0,1,7.85,3.88,27.47,27.47,0,0,1,6.74,5.75,22,22,0,0,1,4.21,7.73Z"/><path d="M670,439.5c10.43-1.17,20.88-2.13,31.33-3.06s20.91-1.73,31.38-2.5q31.4-2.26,62.84-3.76t62.9-2.49l62.9-1.82c21-.59,41.89-1.28,62.75-2.69s41.67-3.39,62-7.72a190,190,0,0,0,29.68-8.77,114,114,0,0,0,26.82-14.79A95.17,95.17,0,0,0,1114,381.75a102.4,102.4,0,0,0,9.73-11.84A127.63,127.63,0,0,0,1138,342.66a203.76,203.76,0,0,0,8.81-29.81c2.26-10.16,3.89-20.47,5.17-30.83s2.17-20.78,2.81-31.21l.43-7.81c.1-1.31,0-2.6.06-3.89s0-2.59,0-3.9c0-5.21-.33-10.41-.73-15.6a197.56,197.56,0,0,0-4.88-30.79,158.46,158.46,0,0,0-10.27-29.36,137.63,137.63,0,0,0-38-48.74c-16.09-13.22-34.92-22.87-54.6-29.73a283.4,283.4,0,0,0-61.12-13.37A424.66,424.66,0,0,0,923,65.49q-15.7.58-31.34,2.18c-10.41,1.07-20.82,2.41-31.1,4.32l-.2-1c10.33-2,20.73-3.42,31.17-4.58s20.91-2,31.41-2.43a415,415,0,0,1,63,1.71,285.26,285.26,0,0,1,61.64,13.14c19.92,6.82,39.06,16.49,55.51,29.85a140.78,140.78,0,0,1,39,49.5,161,161,0,0,1,10.62,29.88,199.21,199.21,0,0,1,5.13,31.26c.44,5.26.75,10.54.83,15.81,0,1.32,0,2.65,0,4s0,2.66,0,4c-.1,2.64-.2,5.28-.34,7.9-.51,10.5-1.28,21-2.44,31.47s-2.69,20.92-4.85,31.27a207.59,207.59,0,0,1-8.64,30.58,131.62,131.62,0,0,1-14.54,28.47,101.58,101.58,0,0,1-22.09,23.34,118.86,118.86,0,0,1-28,15.72,185.24,185.24,0,0,1-30.56,9.14c-10.37,2.23-20.84,3.82-31.31,5.06s-21,2.13-31.49,2.77c-21,1.29-42,1.85-63,2.33-42,.76-83.89,1.13-125.79,2.49q-31.42,1-62.83,2.73c-10.47.58-20.93,1.25-31.39,1.92l-31.37,2.21Z"/></svg>