<svg xmlns="http://www.w3.org/2000/svg" viewBox="0 0 200 200"><defs><style>.cls-1{fill:#fff;}.cls-2{fill:none;stroke:#fff;stroke-miterlimit:10;stroke-width:0.27px;}</style></defs><title>diagnostic</title><g id="arrow_2"><path d="M88.15,76c-.66-8.4-1-16.8-1.23-25.21-.08-4.2-.11-8.41,0-12.62s.27-8.43.69-12.63h.35c.25,4.2.49,8.4.64,12.6s.28,8.4.36,12.6c.13,8.41.19,16.83-.43,25.25Z"/><path d="M78.91,33.33a19.54,19.54,0,0,1,1.76-3.21,33.69,33.69,0,0,1,2.16-2.91c.76-.94,1.57-1.85,2.42-2.72a15.05,15.05,0,0,1,2.84-2.35l.14-.09.09.15a23.8,23.8,0,0,1,1.23,2.72c.35.92.67,1.85,1,2.77a23.19,23.19,0,0,0,1.15,2.66c.43.87.93,1.71,1.42,2.56l-.22.18a15.74,15.74,0,0,1-1.84-2.38A15.18,15.18,0,0,1,89.71,28c-.37-.93-.64-1.89-.92-2.83s-.52-1.9-.74-2.87l.22.06c-.73.94-1.4,1.94-2.11,2.9S84.75,27.21,84,28.15,82.53,30,81.74,30.94a25.16,25.16,0,0,1-2.6,2.56Z"/><path d="M88.87,103.25c.66,8.4,1,16.8,1.23,25.21.08,4.2.11,8.41,0,12.62s-.27,8.43-.68,12.63h-.36c-.25-4.2-.49-8.4-.64-12.6s-.28-8.4-.36-12.6c-.13-8.41-.19-16.83.43-25.25Z"/><path d="M98.11,145.92a20.27,20.27,0,0,1-1.75,3.21A36,36,0,0,1,94.19,152c-.76.94-1.57,1.85-2.42,2.72a15.05,15.05,0,0,1-2.84,2.35l-.14.09-.08-.15a22.24,22.24,0,0,1-1.24-2.72c-.35-.92-.67-1.85-1-2.77a23.19,23.19,0,0,0-1.15-2.66c-.43-.87-.93-1.71-1.42-2.56l.23-.18A16.35,16.35,0,0,1,86,148.54a15.18,15.18,0,0,1,1.34,2.71c.37.93.64,1.89.92,2.83s.53,1.9.74,2.87l-.22-.06c.73-.94,1.4-1.94,2.11-2.9s1.41-2,2.15-2.89,1.48-1.89,2.28-2.79a23.31,23.31,0,0,1,2.6-2.56Z"/></g><g id="human"><path d="M150,114H130a3,3,0,0,1-3-3s-1-9-1-21,1-21,1-21a3,3,0,0,1,3-3h20a3,3,0,0,1,3,3s1,18,1,21-1,21-1,21A3,3,0,0,1,150,114Z"/><path d="M117,80c2.83-7.36,5-14,13-14,1.86,0,2.13.83,3.05,2.44l0,.08a3.6,3.6,0,0,1-1.42,4.84C129,74.94,124.38,78.75,123,87c-1.48,8.86-1,17.68-1,22,0,6-8,6-8,0C114,106.75,112,93,117,80Z"/><path d="M162.14,80c-2.83-7.36-5-14-13-14-1.86,0-2.13.83-3,2.44l-.05.08a3.6,3.6,0,0,0,1.42,4.84c2.72,1.58,7.3,5.39,8.68,13.64,1.48,8.86,1,17.68,1,22,0,6,8,6,8,0C165.14,106.75,167.14,93,162.14,80Z"/><circle cx="140" cy="52" r="12"/><rect x="125.16" y="106.94" width="12" height="52.07" rx="5.41" ry="5.41" transform="matrix(1, 0.08, -0.08, 1, 10.97, -9.99)"/><rect x="143.16" y="106.94" width="12" height="52.07" rx="5.41" ry="5.41" transform="translate(308.41 253.68) rotate(175.45)"/><path d="M64,90.4c3.27-1,6.54-1.77,9.81-2.54a60.21,60.21,0,0,1,9.84-1.66,53.45,53.45,0,0,1,9.88,0,35,35,0,0,1,5,.55,11.92,11.92,0,0,1,2.49.78A10.55,10.55,0,0,1,103.49,89l0,1a9.93,9.93,0,0,1-2.43,1.61,11.52,11.52,0,0,1-2.44.91,35,35,0,0,1-4.92.8,54.42,54.42,0,0,1-9.87.48,58.84,58.84,0,0,1-9.91-1.16c-3.31-.6-6.62-1.26-9.94-2Z"/><path class="cls-1" d="M86.51,86c-.4,1.29-.8,2.57-1.08,3.88a14.79,14.79,0,0,0-.3,2,4,4,0,0,0,.26,2h0a3.54,3.54,0,0,1-.45-2,9.78,9.78,0,0,1,.24-2A16.53,16.53,0,0,1,86.49,86Z"/><path class="cls-1" d="M85,86a4.65,4.65,0,0,1-1.34,2.66,15.25,15.25,0,0,1-2.24,2,14,14,0,0,1-2.56,1.57A6.65,6.65,0,0,1,76,93v0a7.43,7.43,0,0,0,2.78-1,19,19,0,0,0,2.47-1.61,19.71,19.71,0,0,0,2.21-2A5.17,5.17,0,0,0,85,86Z"/><path class="cls-1" d="M90,89a2.25,2.25,0,0,1,.2-1.16.44.44,0,0,1,.61-.12,1.64,1.64,0,0,1,.46.41,3.8,3.8,0,0,1,.61,2.27,1.83,1.83,0,0,1-.12.6.59.59,0,0,1-.23.27.49.49,0,0,1-.21,0l-.17-.06a4.36,4.36,0,0,0-.92-.68A6.2,6.2,0,0,0,88,90v0a5.43,5.43,0,0,1,2.28.42,3,3,0,0,1,.52.29c.16.12.31.27.44.35.28.2.38-.34.39-.66a3.81,3.81,0,0,0-.55-2.13c-.19-.27-.57-.64-.78-.33A2.36,2.36,0,0,0,90,89Z"/><path class="cls-2" d="M96,88s1,3,0,3H93Z"/><path class="cls-1" d="M98,88a3.87,3.87,0,0,0-.47-.28c-.16-.07-.34-.11-.37,0a3.65,3.65,0,0,0,0,1,10.09,10.09,0,0,0,.37,2.14c0,.16.19.3.17.25s.16-.23.27-.39a2.27,2.27,0,0,1,.81-.82A2.37,2.37,0,0,1,101,90l0,0a2.35,2.35,0,0,0-2.07.09,2.1,2.1,0,0,0-.7.78c-.1.14-.12.33-.36.5a.25.25,0,0,1-.25,0,.43.43,0,0,1-.16-.13A1.28,1.28,0,0,1,97.3,91a8.52,8.52,0,0,1-.41-2.22l0-.56a1,1,0,0,1,.11-.6.3.3,0,0,1,.34-.14.8.8,0,0,1,.28.13,2.16,2.16,0,0,1,.4.4Z"/></g></svg>