<svg id="human" xmlns="http://www.w3.org/2000/svg" viewBox="0 0 200 200"><defs><style>.cls-1{fill:none;stroke:#000;stroke-miterlimit:10;stroke-width:5px;}</style></defs><title>human_in_frame</title><path d="M110,114H90a3,3,0,0,1-3-3s-1-9-1-21,1-21,1-21a3,3,0,0,1,3-3h20a3,3,0,0,1,3,3s1,18,1,21-1,21-1,21A3,3,0,0,1,110,114Z"/><path d="M77,80c2.83-7.36,5-14,13-14,1.86,0,2.13.83,3,2.44l0,.08a3.6,3.6,0,0,1-1.42,4.84C89,74.94,84.38,78.75,83,87c-1.48,8.86-1,17.68-1,22,0,6-8,6-8,0C74,106.75,72,93,77,80Z"/><path d="M122.14,80c-2.83-7.36-5-14-13-14-1.86,0-2.13.83-3,2.44l0,.08a3.6,3.6,0,0,0,1.42,4.84c2.72,1.58,7.3,5.39,8.68,13.64,1.48,8.86,1,17.68,1,22,0,6,8,6,8,0C125.14,106.75,127.14,93,122.14,80Z"/><circle cx="100" cy="52" r="12"/><rect x="85.16" y="106.94" width="12" height="52.07" rx="5.41" ry="5.41" transform="translate(10.84 -6.82) rotate(4.55)"/><rect x="103.16" y="106.94" width="12" height="52.07" rx="5.41" ry="5.41" transform="translate(228.53 256.86) rotate(175.45)"/><rect class="cls-1" x="34.5" y="18.5" width="128" height="169"/><rect x="29" y="13" width="12" height="12"/><rect x="157" y="13" width="12" height="12"/><rect x="157" y="182" width="12" height="12"/><rect x="157" y="91" width="12" height="12"/><rect x="29" y="91" width="12" height="12"/><rect x="29" y="182" width="12" height="12"/></svg>