<svg id="human" xmlns="http://www.w3.org/2000/svg" viewBox="0 0 51.95 136.37"><defs><style>.cls-1{fill:#1bb1dc;stroke:#1bb1dc;stroke-miterlimit:10;stroke-width:0.69px;}</style></defs><title>human_v_zones</title><path d="M110,114H90a3,3,0,0,1-3-3s-1-9-1-21,1-21,1-21a3,3,0,0,1,3-3h20a3,3,0,0,1,3,3s1,18,1,21-1,21-1,21A3,3,0,0,1,110,114Z" transform="translate(-73.6 -27.82)"/><path d="M77,80c2.83-7.36,5-14,13-14,1.86,0,2.13.83,3,2.44v.08a3.61,3.61,0,0,1-1.42,4.84C89,74.94,84.38,78.75,83,87c-1.48,8.86-1,17.68-1,22,0,6-8,6-8,0C74,106.75,72,93,77,80Z" transform="translate(-73.6 -27.82)"/><path d="M122.14,80c-2.83-7.36-5-14-13-14-1.86,0-2.13.83-3,2.44v.08a3.61,3.61,0,0,0,1.42,4.84c2.72,1.58,7.3,5.39,8.68,13.64,1.48,8.86,1,17.68,1,22,0,6,8,6,8,0C125.14,106.75,127.14,93,122.14,80Z" transform="translate(-73.6 -27.82)"/><circle cx="26.4" cy="24.18" r="12"/><rect x="65.13" y="126.97" width="52.07" height="12" rx="5.41" ry="5.41" transform="translate(-122.22 185.47) rotate(-85.45)"/><rect x="103.17" y="106.93" width="12" height="52.07" rx="5.41" ry="5.41" transform="translate(-83.81 -18.74) rotate(-4.55)"/><circle class="cls-1" cx="26.4" cy="4.61" r="4.27"/><circle class="cls-1" cx="26.4" cy="21.16" r="4.27"/><circle class="cls-1" cx="26.4" cy="37.94" r="4.27"/><circle class="cls-1" cx="26.4" cy="53.33" r="4.27"/><circle class="cls-1" cx="26.4" cy="65.72" r="4.27"/><circle class="cls-1" cx="26.4" cy="79.11" r="4.27"/><circle class="cls-1" cx="26.4" cy="131.75" r="4.27"/></svg>