<svg id="marakata" xmlns="http://www.w3.org/2000/svg" viewBox="0 0 200 200"><defs><style>.cls-1{fill:#fff;}.cls-2{fill:none;stroke:#fff;stroke-miterlimit:10;stroke-width:1.22px;}</style></defs><title>marakata</title><path d="M10.49,103a179.3,179.3,0,0,1,22-6.46q11-2.58,22-4.32a396.94,396.94,0,0,1,44.17-4.39,290.08,290.08,0,0,1,44.29.94,222.35,222.35,0,0,1,22.22,3.41,134.79,134.79,0,0,1,22.28,6.47l0,1.7a135.3,135.3,0,0,1-22,7.47,219,219,0,0,1-22,4.41,290.19,290.19,0,0,1-44.21,2.94A397.15,397.15,0,0,1,55,112.78q-11.08-1.23-22.21-3.32A180,180,0,0,1,10.51,104Z"/><path class="cls-1" d="M111.53,88.53a11.54,11.54,0,0,0-1.35,3c-.33,1.06-.65,2.12-.91,3.2-.55,2.16-1,4.33-1.45,6.52s-.81,4.39-1.19,6.59l-1.11,6.64h0a58.73,58.73,0,0,1,.22-6.76,63.44,63.44,0,0,1,.92-6.7,49.93,49.93,0,0,1,1.67-6.58,30.57,30.57,0,0,1,1.26-3.16,9.45,9.45,0,0,1,1.92-2.83Z"/><path class="cls-1" d="M100.08,89l-.62,1.21c-.24.38-.52.73-.77,1.11A26.39,26.39,0,0,1,97,93.45c-.61.66-1.24,1.29-1.88,1.93l-2,1.82a78.82,78.82,0,0,1-8.57,6.43,72.62,72.62,0,0,1-9.32,5.3c-.79.41-1.64.72-2.46,1.08s-1.67.65-2.52.93A21.52,21.52,0,0,1,65,112V112a36.7,36.7,0,0,0,9.75-4c3.09-1.68,6.07-3.57,9-5.55s5.75-4.08,8.53-6.25l2.06-1.66,2-1.72A23.26,23.26,0,0,0,99.92,89Z"/><path class="cls-1" d="M128.4,98.49a4.61,4.61,0,0,1,.53-2,2.14,2.14,0,0,1,.79-.82,1.8,1.8,0,0,1,1.18-.2,4.59,4.59,0,0,1,2,1,7.12,7.12,0,0,1,1.55,1.51,7.9,7.9,0,0,1,1.16,4.12,6.84,6.84,0,0,1-1.08,4.2,2.6,2.6,0,0,1-1,.8,2.16,2.16,0,0,1-1.3.12,4.25,4.25,0,0,1-1.94-1.2,13.64,13.64,0,0,0-3.11-2.39,17.27,17.27,0,0,0-7.67-2v-.06a15.26,15.26,0,0,1,8,1.42,13.33,13.33,0,0,1,3.42,2.37,3.32,3.32,0,0,0,1.49.88,1.2,1.2,0,0,0,1.25-.56,4.28,4.28,0,0,0,.67-1.65,7.93,7.93,0,0,0,.19-1.89,7.57,7.57,0,0,0-.9-3.63A6.53,6.53,0,0,0,132.37,97a4.1,4.1,0,0,0-1.59-.92,1.34,1.34,0,0,0-1.46.61,5,5,0,0,0-.72,1.8Z"/><path class="cls-2" d="M155.5,95.5s3,9,1,9h-16Z"/><path class="cls-1" d="M162.49,95.51a9.28,9.28,0,0,0-1.42-.69,2.48,2.48,0,0,0-1.35-.2c-.66.16-.7,1.28-.6,2.24a9.87,9.87,0,0,0,.72,2.85,5.57,5.57,0,0,0,1.61,2.28,2.67,2.67,0,0,0,2.4.49,6.26,6.26,0,0,0,2.41-1.56,5.5,5.5,0,0,1,3.12-1.41,4.58,4.58,0,0,1,3.15.94l-.06.1a4.64,4.64,0,0,0-3-.25,5,5,0,0,0-2.43,1.49,7.08,7.08,0,0,1-2.85,1.94,3.85,3.85,0,0,1-1.88.13,4.16,4.16,0,0,1-1.72-.78,7.87,7.87,0,0,1-2.72-6.17,6,6,0,0,1,.23-1.74,2.24,2.24,0,0,1,.5-.88,1.5,1.5,0,0,1,1-.46,2.81,2.81,0,0,1,1.69.57,6,6,0,0,1,1.21,1.09Z"/></svg>